<?xml version="1.0" ?><!DOCTYPE svg  PUBLIC '-//W3C//DTD SVG 1.1//EN'  'http://www.w3.org/Graphics/SVG/1.1/DTD/svg11.dtd'><svg enable-background="new 0 0 462.2 400.277" height="400.277px" id="Icons" version="1.1" viewBox="0 0 462.2 400.277" width="462.2px" xml:space="preserve" xmlns="http://www.w3.org/2000/svg" xmlns:xlink="http://www.w3.org/1999/xlink"><g><g><polygon fill="#2285B6" points="115.55,400.277 0,200.138 115.55,0 346.65,0 462.2,200.138 346.65,400.277   "/></g><g opacity="0.4"><path d="M343.746,384.533c-28.312-6.653-56.445-14.238-83.839-24.052c-13.936-4.993-24.249-9.271-37.301-15.648    c-12.378-6.048-24.288-13.085-36.125-20.118c-17.018-10.111-33.677-20.823-49.957-32.082    c-16.781-11.606-31.169-22.454-46.351-34.968c-15.418-12.709-30.214-26.171-44.275-40.367    c-6.725-6.789-13.23-13.793-19.551-20.959c-3.311-3.753-6.541-7.578-9.725-11.44c-0.209-0.253-0.411-0.511-0.618-0.765    l-9.24,16.005l112.168,194.281h224.336l5.086-8.808C346.818,385.252,345.281,384.894,343.746,384.533z"/></g><g opacity="0.4"><path d="M334.899,9.641c0.426,4.126,1.034,8.243,1.721,12.342c4.023,23.981,12.6,47.607,22.77,69.599    c12.125,26.219,28.474,50.327,47.353,72.137c12.031,13.899,25.78,27.671,40.77,39.167l0.418-0.736L334.899,9.641z" fill="#FFFFFF"/></g><g><path d="M323.966,119.182c2.653,2.49,3.984,5.564,3.984,9.214v157.383c0,3.657-1.331,6.724-3.984,9.214    c-2.661,2.49-5.813,3.735-9.463,3.735H158.116c-3.657,0-6.81-1.245-9.463-3.735c-2.661-2.49-3.984-5.557-3.984-9.214V128.396    c0-3.649,1.323-6.724,3.984-9.214c2.653-2.49,5.806-3.735,9.463-3.735h156.387C318.152,115.447,321.305,116.692,323.966,119.182z     M196.466,167.493c2.988-3.151,4.482-6.887,4.482-11.206c0-4.312-1.494-8.047-4.482-11.206c-2.988-3.151-6.646-4.731-10.957-4.731    c-4.319,0-8.055,1.58-11.206,4.731c-3.159,3.159-4.731,6.895-4.731,11.206c0,4.653,1.494,8.467,4.482,11.455    s6.802,4.482,11.455,4.482C189.82,172.224,193.477,170.652,196.466,167.493z M198.956,184.177h-27.393v87.656h27.393V184.177z     M301.056,223.523c0-13.276-2.241-23.486-6.724-30.63c-4.482-7.136-13.198-10.708-26.147-10.708    c-12.288,0-20.755,4.653-25.4,13.945h-0.498v-11.953h-26.396v87.656h27.393v-43.33c0-14.941,5.479-22.412,16.436-22.412    c4.312,0,7.549,1.416,9.712,4.233c2.155,2.825,3.4,5.479,3.735,7.969c0.327,2.49,0.498,6.063,0.498,10.708v42.832h27.393V223.523z    " fill="#FFFFFF"/></g></g></svg>