<?xml version="1.0" ?><!DOCTYPE svg  PUBLIC '-//W3C//DTD SVG 1.1//EN'  'http://www.w3.org/Graphics/SVG/1.1/DTD/svg11.dtd'><svg enable-background="new 0 0 462.2 400.277" height="400.277px" id="Icons" version="1.1" viewBox="0 0 462.2 400.277" width="462.2px" xml:space="preserve" xmlns="http://www.w3.org/2000/svg" xmlns:xlink="http://www.w3.org/1999/xlink"><g><g><polygon fill="#BD0A1C" points="115.55,400.277 0,200.138 115.55,0 346.65,0 462.2,200.138 346.65,400.277   "/></g><g opacity="0.4"><path d="M343.746,384.533c-28.312-6.653-56.445-14.238-83.839-24.052c-13.936-4.993-24.249-9.271-37.301-15.648    c-12.378-6.048-24.288-13.085-36.125-20.118c-17.018-10.111-33.677-20.823-49.957-32.082    c-16.781-11.606-31.169-22.454-46.351-34.968c-15.418-12.709-30.214-26.171-44.275-40.367    c-6.725-6.789-13.23-13.793-19.551-20.959c-3.311-3.753-6.541-7.578-9.725-11.44c-0.209-0.253-0.411-0.511-0.618-0.765    l-9.24,16.005l112.168,194.281h224.336l5.086-8.808C346.818,385.252,345.281,384.894,343.746,384.533z"/></g><g opacity="0.4"><path d="M334.899,9.641c0.426,4.126,1.034,8.243,1.721,12.342c4.023,23.981,12.6,47.607,22.77,69.599    c12.125,26.219,28.474,50.327,47.353,72.137c12.031,13.899,25.78,27.671,40.77,39.167l0.418-0.736L334.899,9.641z" fill="#FFFFFF"/></g><g><path d="M157.964,179.511c0-8.229,1.557-16.605,4.684-25.121c2.834-7.664,6.952-14.33,12.348-20.012    c5.389-5.675,11.636-10.645,18.734-14.902c7.092-4.537,14.616-7.804,22.566-9.793c7.664-1.982,15.754-2.98,24.27-2.98    c13.339,0,25.261,2.701,35.766,8.09c11.07,5.396,20.151,13.199,27.25,23.418c6.813,10.219,10.219,21.861,10.219,34.914    c0,7.664-0.852,15.328-2.555,22.992c-1.138,6.533-3.553,13.771-7.238,21.715c-3.692,7.099-7.664,13.06-11.922,17.883    c-4.83,5.109-10.791,9.367-17.883,12.773c-7.099,3.127-14.763,4.684-22.992,4.684c-5.682,0-11.07-1.277-16.18-3.832    c-5.682-3.12-9.653-6.813-11.922-11.07l-1.277,5.535c-0.852,3.406-1.563,6.247-2.129,8.516c-1.138,5.961-1.989,9.793-2.555,11.496    c-0.572,2.275-1.424,5.109-2.555,8.516c-1.138,3.406-2.275,6.247-3.406,8.516l-3.832,7.664c-1.703,3.692-3.553,6.813-5.535,9.367    c-0.286,0.572-1.351,2.063-3.193,4.471c-1.85,2.415-3.34,4.471-4.471,6.174l-1.703,0.426l-0.852-0.852    c-1.424-14.19-2.129-21.854-2.129-22.992c0-7.943,0.991-16.319,2.98-25.121c1.982-10.498,4.684-22.141,8.09-34.914    c3.972-16.18,5.961-24.409,5.961-24.695c-2.555-5.675-3.832-12.627-3.832-20.863c0-6.526,2.129-12.773,6.387-18.734    s9.646-8.941,16.18-8.941c5.109,0,8.941,1.703,11.496,5.109c2.834,3.406,4.258,7.524,4.258,12.348    c0,5.961-1.85,13.625-5.535,22.992c-3.406,10.219-5.109,17.883-5.109,22.992s1.703,9.367,5.109,12.773    c3.972,3.406,8.516,5.109,13.625,5.109c4.258,0,8.369-1.131,12.348-3.406c3.406-1.417,6.526-4.111,9.367-8.09    c2.269-2.834,4.537-6.666,6.813-11.496c1.417-2.834,2.98-7.378,4.684-13.625c0.279-1.417,0.565-2.834,0.852-4.258    c0.279-1.417,0.565-2.98,0.852-4.684c0.279-1.703,0.565-3.12,0.852-4.258c0.565-5.675,0.852-9.793,0.852-12.348    c0-13.625-4.544-24.549-13.625-32.785c-8.802-7.664-20.298-11.496-34.488-11.496c-16.466,0-30.091,5.256-40.875,15.754    c-10.791,10.219-16.18,23.418-16.18,39.598c0,3.979,0.565,7.524,1.703,10.645c0.565,2.275,1.557,4.83,2.98,7.664    c0.279,0.572,0.852,1.49,1.703,2.768s1.417,2.202,1.703,2.768c1.131,2.275,1.703,3.553,1.703,3.832    c0,1.703-0.712,4.684-2.129,8.941c-1.424,3.692-2.841,5.535-4.258,5.535h-0.852c-0.286-0.279-0.712-0.426-1.277-0.426    c-3.979-1.131-7.664-3.406-11.07-6.813c-2.841-2.834-5.256-6.666-7.238-11.496c-1.703-3.686-3.127-8.09-4.258-13.199    C158.39,188.027,157.964,183.769,157.964,179.511z" fill="#FFFFFF"/></g></g></svg>