<?xml version="1.0" ?><!DOCTYPE svg  PUBLIC '-//W3C//DTD SVG 1.1//EN'  'http://www.w3.org/Graphics/SVG/1.1/DTD/svg11.dtd'><svg enable-background="new 0 0 462.2 400.277" height="400.277px" id="Icons" version="1.1" viewBox="0 0 462.2 400.277" width="462.2px" xml:space="preserve" xmlns="http://www.w3.org/2000/svg" xmlns:xlink="http://www.w3.org/1999/xlink"><g><g><polygon fill="#F6F21E" points="115.55,400.277 0,200.138 115.55,0 346.65,0 462.2,200.138 346.65,400.277   "/></g><g opacity="0.4"><path d="M343.746,384.533c-28.312-6.653-56.445-14.238-83.839-24.052c-13.936-4.993-24.249-9.271-37.301-15.648    c-12.378-6.048-24.288-13.085-36.125-20.118c-17.018-10.111-33.677-20.823-49.957-32.082    c-16.781-11.606-31.169-22.454-46.351-34.968c-15.418-12.709-30.214-26.171-44.275-40.367    c-6.725-6.789-13.23-13.793-19.551-20.959c-3.311-3.753-6.541-7.578-9.725-11.44c-0.209-0.253-0.411-0.511-0.618-0.765    l-9.24,16.005l112.168,194.281h224.336l5.086-8.808C346.818,385.252,345.281,384.894,343.746,384.533z"/></g><g opacity="0.4"><path d="M334.899,9.641c0.426,4.126,1.034,8.243,1.721,12.342c4.023,23.981,12.6,47.607,22.77,69.599    c12.125,26.219,28.474,50.327,47.353,72.137c12.031,13.899,25.78,27.671,40.77,39.167l0.418-0.736L334.899,9.641z" fill="#FFFFFF"/></g><g><path d="M290.815,185.44c1.016-0.333,2.198-0.762,3.555-1.27c1.349-0.508,2.365-0.762,3.047-0.762    c4.737,0,7.951,0.508,9.648,1.523c6.094,3.047,6.427,6.776,1.016,11.172c-2.031,1.357-6.094,3.221-12.188,5.586    c-4.745,1.698-7.451,3.555-8.125,5.586c-0.682,2.031,0.167,5.252,2.539,9.648c8.458,16.25,20.313,26.24,35.547,29.961    c0.674,0,1.603,0.428,2.793,1.27c1.182,0.849,1.603,1.444,1.27,1.777c0,3.388-1.016,5.586-3.047,6.602    c-5.76,2.713-11.513,4.745-17.266,6.094c-3.729,1.016-5.76,2.88-6.094,5.586c-1.016,3.729-2.206,6.014-3.555,6.855    c-1.357,0.849-3.729,0.936-7.109,0.254c-11.854-2.031-22.344,0.341-31.484,7.109c-10.156,7.109-19.384,10.664-27.676,10.664    c-8.299,0-17.353-3.721-27.168-11.172c-8.807-6.427-19.13-8.633-30.977-6.602c-4.063,0.682-6.689,0.595-7.871-0.254    c-1.19-0.841-2.285-3.126-3.301-6.855c-0.341-2.706-2.206-4.57-5.586-5.586c-5.76-1.016-11.346-2.873-16.758-5.586    c-2.713-1.349-4.063-3.555-4.063-6.602c-0.341-0.333,0.167-1.016,1.523-2.031c1.349-1.016,2.706-1.69,4.063-2.031    c16.25-4.737,28.263-15.909,36.055-33.516c1.69-3.38,0.841-6.26-2.539-8.633c-2.031-1.016-5.078-2.198-9.141-3.555l-6.094-3.047    c-4.745-2.706-6.094-5.919-4.063-9.648c2.031-5.078,5.919-6.602,11.68-4.57c2.365,1.357,4.737,2.206,7.109,2.539    c3.38,0.341,5.078-1.182,5.078-4.57v-27.422c1.349-18.615,11.505-31.818,30.469-39.609c12.521-5.078,25.47-5.586,38.848-1.523    c13.37,4.063,23.439,12.021,30.215,23.867c3.38,5.76,5.412,14.901,6.094,27.422c-0.341,2.031-0.508,4.999-0.508,8.887    c0,3.896-0.174,6.855-0.508,8.887c-0.341,1.698-0.087,2.88,0.762,3.555C287.848,186.122,289.117,186.122,290.815,185.44z" fill="#FFFFFF"/></g></g></svg>