<?xml version="1.0" ?><!DOCTYPE svg  PUBLIC '-//W3C//DTD SVG 1.1//EN'  'http://www.w3.org/Graphics/SVG/1.1/DTD/svg11.dtd'><svg enable-background="new 0 0 462.2 400.277" height="400.277px" id="Icons" version="1.1" viewBox="0 0 462.2 400.277" width="462.2px" xml:space="preserve" xmlns="http://www.w3.org/2000/svg" xmlns:xlink="http://www.w3.org/1999/xlink"><g><g><polygon fill="#229ABF" points="115.55,400.277 0,200.138 115.55,0 346.65,0 462.2,200.138 346.65,400.277   "/></g><g opacity="0.4"><path d="M343.746,384.533c-28.312-6.653-56.445-14.238-83.839-24.052c-13.936-4.993-24.249-9.271-37.301-15.648    c-12.378-6.048-24.288-13.085-36.125-20.118c-17.018-10.111-33.677-20.823-49.957-32.082    c-16.781-11.606-31.169-22.454-46.351-34.968c-15.418-12.709-30.214-26.171-44.275-40.367    c-6.725-6.789-13.23-13.793-19.551-20.959c-3.311-3.753-6.541-7.578-9.725-11.44c-0.209-0.253-0.411-0.511-0.618-0.765    l-9.24,16.005l112.168,194.281h224.336l5.086-8.808C346.818,385.252,345.281,384.894,343.746,384.533z"/></g><g opacity="0.4"><path d="M334.899,9.641c0.426,4.126,1.034,8.243,1.721,12.342c4.023,23.981,12.6,47.607,22.77,69.599    c12.125,26.219,28.474,50.327,47.353,72.137c12.031,13.899,25.78,27.671,40.77,39.167l0.418-0.736L334.899,9.641z" fill="#FFFFFF"/></g><g><path d="M355.806,145.038c-6.836,9.445-14.328,17.09-22.461,22.949v5.859c0,13.352-1.793,25.391-5.371,36.133    c-3.586,12.375-8.957,23.926-16.113,34.668c-6.188,10.094-14.648,20.02-25.391,29.785c-10.742,8.789-22.789,15.465-36.133,20.02    c-13.672,5.211-28.648,7.813-44.922,7.813c-25.07,0-48.18-6.836-69.336-20.508c4.555,0.656,8.133,0.977,10.742,0.977    c20.508,0,39.223-6.508,56.152-19.531c-9.766,0-18.555-2.93-26.367-8.789s-13.184-13.344-16.113-22.461    c4.555,0.656,7.484,0.977,8.789,0.977c4.227,0,8.133-0.648,11.719-1.953c-10.094-1.953-18.723-6.996-25.879-15.137    c-6.836-8.461-10.254-18.066-10.254-28.809v-0.488c6.508,3.586,13.344,5.371,20.508,5.371c-6.188-3.906-11.07-9.109-14.648-15.625    c-3.586-6.18-5.371-13.344-5.371-21.484c0-8.461,1.953-16.113,5.859-22.949c11.391,14,25.063,25.07,41.016,33.203    c16.602,8.469,34.012,13.184,52.246,14.16c-0.977-3.906-1.465-7.484-1.465-10.742c0-12.367,4.395-22.949,13.184-31.738    s19.531-13.184,32.227-13.184c13.016,0,23.926,4.723,32.715,14.16c10.086-1.953,19.691-5.531,28.809-10.742    c-3.258,10.742-9.934,19.043-20.02,24.902C337.739,150.898,346.361,148.624,355.806,145.038z" fill="#FFFFFF"/></g></g></svg>